<?xml version="1.0" encoding="UTF-8"?><svg id="a" xmlns="http://www.w3.org/2000/svg" viewBox="0 0 16 16"><defs><style>.b{fill:#005a8b;}.c{fill:#fff;}</style></defs><g><path class="c" d="M5.97,15.74c-.68,0-1.35-.11-1.95-.34-1.67-.61-3-2.04-3.46-3.75-.1-.37-.16-.7-.19-1.04,0-.18-.02-.35-.02-.53V.24H10.31c.45,0,.9,.08,1.36,.22,1.94,.58,3.42,2.15,3.87,4.13,.07,.33,.11,.63,.13,.91,0,.14,0,.28,0,.42v4.16c0,.38-.03,.72-.09,1.04-.14,.78-.44,1.51-.87,2.15-.8,1.18-1.92,1.95-3.3,2.3-.3,.07-.57,.12-.82,.13-.22,0-.44,.02-.65,.02h-3.97v.02Z"/><path class="b" d="M10.17,.49h.14c.45,0,.87,.08,1.3,.21,1.86,.55,3.27,2.06,3.69,3.95,.06,.29,.11,.58,.12,.87,0,.14,0,.27,0,.41v4.16c0,.34-.02,.67-.08,1-.13,.74-.41,1.43-.83,2.05-.77,1.13-1.83,1.87-3.16,2.2-.26,.07-.52,.11-.78,.13-.21,0-.43,.02-.64,.02h-3.98c-.64,0-1.27-.1-1.88-.32-1.61-.58-2.86-1.93-3.31-3.58-.09-.33-.15-.65-.18-.99,0-.17-.02-.34-.02-.51V.49H10.17M10.17,0H.08V10.1c0,.18,0,.36,.02,.54,.02,.35,.09,.7,.19,1.09,.5,1.82,1.86,3.27,3.62,3.92,.64,.23,1.33,.35,2.04,.35h3.98c.22,0,.45,0,.66-.03,.28-.02,.57-.06,.87-.14,1.44-.37,2.6-1.17,3.44-2.4,.46-.66,.76-1.42,.91-2.24,.06-.34,.09-.69,.09-1.09V5.92c0-.14,0-.29,0-.43,0-.31-.06-.63-.13-.95-.47-2.06-2.01-3.72-4.04-4.32C11.26,.09,10.79,0,10.31,0h-.14Z"/></g><path class="b" d="M10.33,4.03c0,.22-.03,.44-.09,.65-.08,.3-.21,.58-.43,.8-.18,.18-.39,.32-.62,.42-.27,.12-.56,.19-.85,.23-.32,.05-.64,.06-.97,.05h-.56V2.51c0-.16,0-.32,.03-.48,0-.03,0-.06,.02-.09,.02-.11,.09-.18,.2-.22,.14-.04,.29-.07,.43-.09,.17-.02,.34-.03,.52-.02,.34,0,.66,.05,.99,.16,.63,.23,1.02,.65,1.22,1.29,.1,.32,.13,.64,.12,.96h0Z"/><path class="b" d="M10.94,9.24c.08,.34,.11,.67,.09,1.02-.02,.29-.06,.57-.16,.82-.22,.64-.64,1.07-1.26,1.34-.26,.11-.53,.19-.8,.23-.24,.04-.48,.06-.72,.05-.22,0-.45-.02-.65-.09-.24-.07-.4-.23-.49-.47-.06-.17-.09-.35-.1-.53,0-.18-.02-.36-.02-.54v-3.73h.93c.52,0,1.02,.07,1.52,.23,.25,.08,.5,.18,.71,.32,.51,.31,.81,.75,.95,1.33h0Z"/><path class="b" d="M14.93,10.21c0,1.23-.45,2.31-1.28,3.22-.65,.71-1.46,1.19-2.4,1.42h0c-.23,.06-.47,.1-.7,.12-.18,0-.37,.02-.55,.02H5.91c-.96,0-1.85-.27-2.65-.79-.43-.28-.8-.63-1.12-1.03-.26-.33-.42-.7-.48-1.12-.05-.29-.06-.58-.03-.86,.03-.3,.06-.6,.09-.88,.03-.28,.07-.57,.1-.84,.03-.28,.07-.56,.1-.84,.03-.25,.06-.49,.09-.73,.03-.24,.06-.49,.09-.72,.03-.25,.06-.49,.09-.73,.03-.24,.06-.49,.09-.72,.02-.17,.04-.33,.06-.5,0-.05,0-.08-.05-.11-.1-.08-.19-.16-.29-.24-.03-.02-.05-.05-.05-.09v-.75h.63v-1.17h-.31s.7-.56,1.04-.8c.03-.03,.07-.09,.07-.14v-.66s.02-.05,.05-.06h.03s.06,.02,.07,.06v.66s.03,.11,.07,.14c.33,.25,1.05,.8,1.05,.8h-.31v1.17h.63v.74s0,.06-.04,.09c-.1,.08-.21,.17-.31,.26-.03,.02-.04,.05-.04,.09,.03,.22,.05,.44,.07,.66,.02,.22,.05,.45,.07,.66,.02,.23,.05,.46,.08,.68,.02,.22,.05,.45,.07,.66,.02,.23,.05,.46,.07,.68,.02,.22,.05,.45,.07,.66,.03,.23,.05,.46,.08,.68,.02,.22,.05,.45,.07,.66,.02,.23,.05,.46,.07,.68,.02,.22,.05,.45,.07,.66,.03,.29,.05,.58,.12,.86,.02,.09,.05,.18,.08,.27,.13,.35,.37,.58,.7,.7,.19,.07,.39,.11,.59,.13,.31,.03,.61,.05,.91,.04,.32,0,.64-.02,.96-.05,.48-.04,.95-.12,1.42-.24,.16-.04,.31-.09,.46-.14,.54-.18,1.04-.43,1.5-.76,.49-.37,.88-.81,1.15-1.37,.18-.36,.28-.73,.32-1.13,.05-.51,0-.99-.15-1.47-.19-.57-.55-1.02-1.01-1.38-.38-.29-.79-.49-1.24-.64-.13-.04-.26-.08-.38-.12l-.08-.02s.05-.03,.07-.04c.3-.14,.59-.31,.84-.52,.59-.47,.97-1.07,1.09-1.82,.13-.79,0-1.56-.42-2.25-.03-.04-.06-.09-.09-.14-.21-.27-.58-.61-.59-.63,.02,0,.04,0,.06,.02,1.38,.48,2.36,1.39,2.94,2.73,.17,.39,.28,.79,.33,1.22,.02,.2,.04,.4,.04,.6,0,1.48,0,2.96,0,4.44h0Z"/><path class="c" d="M3.06,3.99h.76v-1.17h-.75v1.17h0Z"/></svg>